<mxfile host="app.diagrams.net" agent="Mozilla/5.0 (Windows NT 10.0; Win64; x64) AppleWebKit/537.36 (KHTML, like Gecko) Chrome/131.0.0.0 Safari/537.36" version="25.0.1">
  <diagram name="หน้า-1" id="AzQ61YjlUQCd4XRK9PC7">
    <mxGraphModel dx="1050" dy="530" grid="1" gridSize="10" guides="1" tooltips="1" connect="1" arrows="1" fold="1" page="1" pageScale="1" pageWidth="827" pageHeight="1169" math="0" shadow="0">
      <root>
        <mxCell id="0" />
        <mxCell id="1" parent="0" />
        <mxCell id="ERAEKMj-vIW2_JT1fumD-3" value="" style="edgeStyle=orthogonalEdgeStyle;rounded=0;orthogonalLoop=1;jettySize=auto;html=1;" edge="1" parent="1" source="ERAEKMj-vIW2_JT1fumD-1" target="ERAEKMj-vIW2_JT1fumD-2">
          <mxGeometry relative="1" as="geometry" />
        </mxCell>
        <mxCell id="ERAEKMj-vIW2_JT1fumD-1" value="Start" style="ellipse;whiteSpace=wrap;html=1;" vertex="1" parent="1">
          <mxGeometry x="354" y="10" width="120" height="80" as="geometry" />
        </mxCell>
        <mxCell id="ERAEKMj-vIW2_JT1fumD-5" value="" style="edgeStyle=orthogonalEdgeStyle;rounded=0;orthogonalLoop=1;jettySize=auto;html=1;" edge="1" parent="1" source="ERAEKMj-vIW2_JT1fumD-2" target="ERAEKMj-vIW2_JT1fumD-4">
          <mxGeometry relative="1" as="geometry" />
        </mxCell>
        <mxCell id="ERAEKMj-vIW2_JT1fumD-2" value="Input Array1 size" style="shape=parallelogram;perimeter=parallelogramPerimeter;whiteSpace=wrap;html=1;fixedSize=1;" vertex="1" parent="1">
          <mxGeometry x="354" y="180" width="120" height="60" as="geometry" />
        </mxCell>
        <mxCell id="ERAEKMj-vIW2_JT1fumD-7" value="" style="edgeStyle=orthogonalEdgeStyle;rounded=0;orthogonalLoop=1;jettySize=auto;html=1;" edge="1" parent="1" source="ERAEKMj-vIW2_JT1fumD-4" target="ERAEKMj-vIW2_JT1fumD-6">
          <mxGeometry relative="1" as="geometry" />
        </mxCell>
        <mxCell id="ERAEKMj-vIW2_JT1fumD-4" value="Input Array1" style="shape=parallelogram;perimeter=parallelogramPerimeter;whiteSpace=wrap;html=1;fixedSize=1;" vertex="1" parent="1">
          <mxGeometry x="354" y="320" width="120" height="60" as="geometry" />
        </mxCell>
        <mxCell id="ERAEKMj-vIW2_JT1fumD-9" value="" style="edgeStyle=orthogonalEdgeStyle;rounded=0;orthogonalLoop=1;jettySize=auto;html=1;" edge="1" parent="1" source="ERAEKMj-vIW2_JT1fumD-6" target="ERAEKMj-vIW2_JT1fumD-8">
          <mxGeometry relative="1" as="geometry" />
        </mxCell>
        <mxCell id="ERAEKMj-vIW2_JT1fumD-6" value="Input Array2 size" style="shape=parallelogram;perimeter=parallelogramPerimeter;whiteSpace=wrap;html=1;fixedSize=1;" vertex="1" parent="1">
          <mxGeometry x="354" y="460" width="120" height="60" as="geometry" />
        </mxCell>
        <mxCell id="ERAEKMj-vIW2_JT1fumD-11" value="" style="edgeStyle=orthogonalEdgeStyle;rounded=0;orthogonalLoop=1;jettySize=auto;html=1;" edge="1" parent="1" source="ERAEKMj-vIW2_JT1fumD-8" target="ERAEKMj-vIW2_JT1fumD-10">
          <mxGeometry relative="1" as="geometry" />
        </mxCell>
        <mxCell id="ERAEKMj-vIW2_JT1fumD-8" value="Input Array2" style="shape=parallelogram;perimeter=parallelogramPerimeter;whiteSpace=wrap;html=1;fixedSize=1;" vertex="1" parent="1">
          <mxGeometry x="354" y="600" width="120" height="60" as="geometry" />
        </mxCell>
        <mxCell id="ERAEKMj-vIW2_JT1fumD-13" value="" style="edgeStyle=orthogonalEdgeStyle;rounded=0;orthogonalLoop=1;jettySize=auto;html=1;" edge="1" parent="1" source="ERAEKMj-vIW2_JT1fumD-10" target="ERAEKMj-vIW2_JT1fumD-12">
          <mxGeometry relative="1" as="geometry" />
        </mxCell>
        <mxCell id="ERAEKMj-vIW2_JT1fumD-10" value="Array1 x Array2" style="whiteSpace=wrap;html=1;" vertex="1" parent="1">
          <mxGeometry x="354" y="740" width="120" height="60" as="geometry" />
        </mxCell>
        <mxCell id="ERAEKMj-vIW2_JT1fumD-15" value="" style="edgeStyle=orthogonalEdgeStyle;rounded=0;orthogonalLoop=1;jettySize=auto;html=1;" edge="1" parent="1" source="ERAEKMj-vIW2_JT1fumD-12" target="ERAEKMj-vIW2_JT1fumD-14">
          <mxGeometry relative="1" as="geometry" />
        </mxCell>
        <mxCell id="ERAEKMj-vIW2_JT1fumD-12" value="Output Array1" style="shape=parallelogram;perimeter=parallelogramPerimeter;whiteSpace=wrap;html=1;fixedSize=1;" vertex="1" parent="1">
          <mxGeometry x="354" y="880" width="120" height="60" as="geometry" />
        </mxCell>
        <mxCell id="ERAEKMj-vIW2_JT1fumD-17" value="" style="edgeStyle=orthogonalEdgeStyle;rounded=0;orthogonalLoop=1;jettySize=auto;html=1;" edge="1" parent="1" source="ERAEKMj-vIW2_JT1fumD-14" target="ERAEKMj-vIW2_JT1fumD-16">
          <mxGeometry relative="1" as="geometry" />
        </mxCell>
        <mxCell id="ERAEKMj-vIW2_JT1fumD-14" value="Output Array2" style="shape=parallelogram;perimeter=parallelogramPerimeter;whiteSpace=wrap;html=1;fixedSize=1;" vertex="1" parent="1">
          <mxGeometry x="354" y="1020" width="120" height="60" as="geometry" />
        </mxCell>
        <mxCell id="ERAEKMj-vIW2_JT1fumD-19" value="" style="edgeStyle=orthogonalEdgeStyle;rounded=0;orthogonalLoop=1;jettySize=auto;html=1;" edge="1" parent="1" source="ERAEKMj-vIW2_JT1fumD-16" target="ERAEKMj-vIW2_JT1fumD-18">
          <mxGeometry relative="1" as="geometry" />
        </mxCell>
        <mxCell id="ERAEKMj-vIW2_JT1fumD-16" value="Output Array1 x Array2" style="shape=parallelogram;perimeter=parallelogramPerimeter;whiteSpace=wrap;html=1;fixedSize=1;" vertex="1" parent="1">
          <mxGeometry x="354" y="1160" width="120" height="60" as="geometry" />
        </mxCell>
        <mxCell id="ERAEKMj-vIW2_JT1fumD-18" value="End" style="ellipse;whiteSpace=wrap;html=1;" vertex="1" parent="1">
          <mxGeometry x="354" y="1300" width="120" height="80" as="geometry" />
        </mxCell>
      </root>
    </mxGraphModel>
  </diagram>
</mxfile>
